{
    "asset" : {
        "generator" : "Khronos glTF Blender I/O v1.7.33",
        "version" : "2.0"
    },
    "scene" : 0,
    "scenes" : [
        {
            "name" : "Scene",
            "nodes" : [
                0,
                1,
                2,
                3,
                4,
                5,
                6
            ]
        }
    ],
    "nodes" : [
        {
            "mesh" : 0,
            "name" : "Cube",
            "translation" : [
                0,
                0,
                -1.3928635120391846
            ]
        },
        {
            "mesh" : 1,
            "name" : "Cube.001",
            "rotation" : [
                0,
                0.7071068286895752,
                0,
                0.7071068286895752
            ],
            "translation" : [
                1.0497689247131348,
                0,
                0
            ]
        },
        {
            "mesh" : 2,
            "name" : "Cube.002",
            "rotation" : [
                0,
                0.7071068286895752,
                0,
                0.7071068286895752
            ],
            "translation" : [
                -1.0057542324066162,
                0,
                0
            ]
        },
        {
            "mesh" : 3,
            "name" : "Cube.003",
            "translation" : [
                0,
                0,
                1.4119471311569214
            ]
        },
        {
            "mesh" : 4,
            "name" : "Cube.004",
            "translation" : [
                0.020843198522925377,
                1.474656105041504,
                0
            ]
        },
        {
            "mesh" : 5,
            "name" : "422-4223386_flag-of-canada-maple-leaf-canada-day-canadian",
            "rotation" : [
                0.7071068286895752,
                0,
                0,
                0.7071068286895752
            ],
            "translation" : [
                0,
                1.273840308189392,
                1.5661154985427856
            ]
        },
        {
            "mesh" : 6,
            "name" : "name",
            "rotation" : [
                0.7071068286895752,
                0,
                0,
                0.7071068286895752
            ],
            "translation" : [
                0,
                0.7699533700942993,
                1.5919811725616455
            ]
        }
    ],
    "materials" : [
        {
            "doubleSided" : true,
            "name" : "Material",
            "pbrMetallicRoughness" : {
                "metallicFactor" : 0,
                "roughnessFactor" : 0.5
            }
        },
        {
            "doubleSided" : true,
            "name" : "Front",
            "pbrMetallicRoughness" : {
                "baseColorFactor" : [
                    0.9999843835830688,
                    0.9999843835830688,
                    0.9999843835830688,
                    1
                ],
                "metallicFactor" : 0,
                "roughnessFactor" : 0.5
            }
        },
        {
            "doubleSided" : true,
            "name" : "Material.001",
            "pbrMetallicRoughness" : {
                "baseColorFactor" : [
                    1,
                    0,
                    0,
                    1
                ],
                "metallicFactor" : 0,
                "roughnessFactor" : 0.5
            }
        },
        {
            "doubleSided" : true,
            "name" : "Material.002",
            "pbrMetallicRoughness" : {
                "metallicFactor" : 0,
                "roughnessFactor" : 0.5
            }
        },
        {
            "alphaMode" : "BLEND",
            "doubleSided" : true,
            "name" : "422-4223386_flag-of-canada-maple-leaf-canada-day-canadian",
            "pbrMetallicRoughness" : {
                "baseColorTexture" : {
                    "index" : 0
                },
                "metallicFactor" : 0,
                "roughnessFactor" : 0.5
            }
        },
        {
            "alphaMode" : "BLEND",
            "doubleSided" : true,
            "name" : "name",
            "pbrMetallicRoughness" : {
                "baseColorTexture" : {
                    "index" : 1
                },
                "metallicFactor" : 0,
                "roughnessFactor" : 0.5
            }
        }
    ],
    "meshes" : [
        {
            "name" : "Cube",
            "primitives" : [
                {
                    "attributes" : {
                        "POSITION" : 0,
                        "NORMAL" : 1,
                        "TEXCOORD_0" : 2
                    },
                    "indices" : 3,
                    "material" : 0
                }
            ]
        },
        {
            "name" : "Cube.001",
            "primitives" : [
                {
                    "attributes" : {
                        "POSITION" : 4,
                        "NORMAL" : 5,
                        "TEXCOORD_0" : 6
                    },
                    "indices" : 3,
                    "material" : 0
                }
            ]
        },
        {
            "name" : "Cube.003",
            "primitives" : [
                {
                    "attributes" : {
                        "POSITION" : 7,
                        "NORMAL" : 8,
                        "TEXCOORD_0" : 9
                    },
                    "indices" : 3,
                    "material" : 0
                }
            ]
        },
        {
            "name" : "Cube.004",
            "primitives" : [
                {
                    "attributes" : {
                        "POSITION" : 10,
                        "NORMAL" : 11,
                        "TEXCOORD_0" : 12
                    },
                    "indices" : 13,
                    "material" : 1
                }
            ]
        },
        {
            "name" : "Cube.005",
            "primitives" : [
                {
                    "attributes" : {
                        "POSITION" : 14,
                        "NORMAL" : 15,
                        "TEXCOORD_0" : 16
                    },
                    "indices" : 17,
                    "material" : 2
                },
                {
                    "attributes" : {
                        "POSITION" : 18,
                        "NORMAL" : 19,
                        "TEXCOORD_0" : 20
                    },
                    "indices" : 21,
                    "material" : 3
                }
            ]
        },
        {
            "name" : "422-4223386_flag-of-canada-maple-leaf-canada-day-canadian",
            "primitives" : [
                {
                    "attributes" : {
                        "POSITION" : 22,
                        "NORMAL" : 23,
                        "TEXCOORD_0" : 24
                    },
                    "indices" : 25,
                    "material" : 4
                }
            ]
        },
        {
            "name" : "name",
            "primitives" : [
                {
                    "attributes" : {
                        "POSITION" : 26,
                        "NORMAL" : 27,
                        "TEXCOORD_0" : 28
                    },
                    "indices" : 25,
                    "material" : 5
                }
            ]
        }
    ],
    "textures" : [
        {
            "sampler" : 0,
            "source" : 0
        },
        {
            "sampler" : 0,
            "source" : 1
        }
    ],
    "images" : [
        {
            "bufferView" : 26,
            "mimeType" : "image/png",
            "name" : "422-4223386_flag-of-canada-maple-leaf-canada-day-canadian"
        },
        {
            "bufferView" : 30,
            "mimeType" : "image/png",
            "name" : "name"
        }
    ],
    "accessors" : [
        {
            "bufferView" : 0,
            "componentType" : 5126,
            "count" : 24,
            "max" : [
                1,
                1,
                0.10464632511138916
            ],
            "min" : [
                -1,
                -1,
                -0.10464632511138916
            ],
            "type" : "VEC3"
        },
        {
            "bufferView" : 1,
            "componentType" : 5126,
            "count" : 24,
            "type" : "VEC3"
        },
        {
            "bufferView" : 2,
            "componentType" : 5126,
            "count" : 24,
            "type" : "VEC2"
        },
        {
            "bufferView" : 3,
            "componentType" : 5123,
            "count" : 36,
            "type" : "SCALAR"
        },
        {
            "bufferView" : 4,
            "componentType" : 5126,
            "count" : 24,
            "max" : [
                1.5063852071762085,
                1,
                0.10464631766080856
            ],
            "min" : [
                -1.5063852071762085,
                -1,
                -0.10464631766080856
            ],
            "type" : "VEC3"
        },
        {
            "bufferView" : 5,
            "componentType" : 5126,
            "count" : 24,
            "type" : "VEC3"
        },
        {
            "bufferView" : 6,
            "componentType" : 5126,
            "count" : 24,
            "type" : "VEC2"
        },
        {
            "bufferView" : 7,
            "componentType" : 5126,
            "count" : 24,
            "max" : [
                1.5063852071762085,
                1,
                0.10464631766080856
            ],
            "min" : [
                -1.5063852071762085,
                -1,
                -0.10464631766080856
            ],
            "type" : "VEC3"
        },
        {
            "bufferView" : 8,
            "componentType" : 5126,
            "count" : 24,
            "type" : "VEC3"
        },
        {
            "bufferView" : 9,
            "componentType" : 5126,
            "count" : 24,
            "type" : "VEC2"
        },
        {
            "bufferView" : 10,
            "componentType" : 5126,
            "count" : 299,
            "max" : [
                1,
                1,
                0.10464632511138916
            ],
            "min" : [
                -1,
                -1,
                -0.10464632511138916
            ],
            "type" : "VEC3"
        },
        {
            "bufferView" : 11,
            "componentType" : 5126,
            "count" : 299,
            "type" : "VEC3"
        },
        {
            "bufferView" : 12,
            "componentType" : 5126,
            "count" : 299,
            "type" : "VEC2"
        },
        {
            "bufferView" : 13,
            "componentType" : 5123,
            "count" : 900,
            "type" : "SCALAR"
        },
        {
            "bufferView" : 14,
            "componentType" : 5126,
            "count" : 49,
            "max" : [
                1.3096023797988892,
                0.5815691947937012,
                1.6858537197113037
            ],
            "min" : [
                -1.3096023797988892,
                -0.5815691947937012,
                -1.6858537197113037
            ],
            "type" : "VEC3"
        },
        {
            "bufferView" : 15,
            "componentType" : 5126,
            "count" : 49,
            "type" : "VEC3"
        },
        {
            "bufferView" : 16,
            "componentType" : 5126,
            "count" : 49,
            "type" : "VEC2"
        },
        {
            "bufferView" : 17,
            "componentType" : 5123,
            "count" : 75,
            "type" : "SCALAR"
        },
        {
            "bufferView" : 18,
            "componentType" : 5126,
            "count" : 7,
            "max" : [
                1.3096023797988892,
                0.4351555109024048,
                1.507886290550232
            ],
            "min" : [
                -1.3096023797988892,
                -0.5815691947937012,
                1.49894380569458
            ],
            "type" : "VEC3"
        },
        {
            "bufferView" : 19,
            "componentType" : 5126,
            "count" : 7,
            "type" : "VEC3"
        },
        {
            "bufferView" : 20,
            "componentType" : 5126,
            "count" : 7,
            "type" : "VEC2"
        },
        {
            "bufferView" : 21,
            "componentType" : 5123,
            "count" : 9,
            "type" : "SCALAR"
        },
        {
            "bufferView" : 22,
            "componentType" : 5126,
            "count" : 4,
            "max" : [
                0.2040800005197525,
                0,
                0.1990966498851776
            ],
            "min" : [
                -0.2040800005197525,
                0,
                -0.1990966498851776
            ],
            "type" : "VEC3"
        },
        {
            "bufferView" : 23,
            "componentType" : 5126,
            "count" : 4,
            "type" : "VEC3"
        },
        {
            "bufferView" : 24,
            "componentType" : 5126,
            "count" : 4,
            "type" : "VEC2"
        },
        {
            "bufferView" : 25,
            "componentType" : 5123,
            "count" : 6,
            "type" : "SCALAR"
        },
        {
            "bufferView" : 27,
            "componentType" : 5126,
            "count" : 4,
            "max" : [
                0.4753847122192383,
                0,
                0.21233850717544556
            ],
            "min" : [
                -0.4753847122192383,
                0,
                -0.21233850717544556
            ],
            "type" : "VEC3"
        },
        {
            "bufferView" : 28,
            "componentType" : 5126,
            "count" : 4,
            "type" : "VEC3"
        },
        {
            "bufferView" : 29,
            "componentType" : 5126,
            "count" : 4,
            "type" : "VEC2"
        }
    ],
    "bufferViews" : [
        {
            "buffer" : 0,
            "byteLength" : 288,
            "byteOffset" : 0
        },
        {
            "buffer" : 0,
            "byteLength" : 288,
            "byteOffset" : 288
        },
        {
            "buffer" : 0,
            "byteLength" : 192,
            "byteOffset" : 576
        },
        {
            "buffer" : 0,
            "byteLength" : 72,
            "byteOffset" : 768
        },
        {
            "buffer" : 0,
            "byteLength" : 288,
            "byteOffset" : 840
        },
        {
            "buffer" : 0,
            "byteLength" : 288,
            "byteOffset" : 1128
        },
        {
            "buffer" : 0,
            "byteLength" : 192,
            "byteOffset" : 1416
        },
        {
            "buffer" : 0,
            "byteLength" : 288,
            "byteOffset" : 1608
        },
        {
            "buffer" : 0,
            "byteLength" : 288,
            "byteOffset" : 1896
        },
        {
            "buffer" : 0,
            "byteLength" : 192,
            "byteOffset" : 2184
        },
        {
            "buffer" : 0,
            "byteLength" : 3588,
            "byteOffset" : 2376
        },
        {
            "buffer" : 0,
            "byteLength" : 3588,
            "byteOffset" : 5964
        },
        {
            "buffer" : 0,
            "byteLength" : 2392,
            "byteOffset" : 9552
        },
        {
            "buffer" : 0,
            "byteLength" : 1800,
            "byteOffset" : 11944
        },
        {
            "buffer" : 0,
            "byteLength" : 588,
            "byteOffset" : 13744
        },
        {
            "buffer" : 0,
            "byteLength" : 588,
            "byteOffset" : 14332
        },
        {
            "buffer" : 0,
            "byteLength" : 392,
            "byteOffset" : 14920
        },
        {
            "buffer" : 0,
            "byteLength" : 150,
            "byteOffset" : 15312
        },
        {
            "buffer" : 0,
            "byteLength" : 84,
            "byteOffset" : 15464
        },
        {
            "buffer" : 0,
            "byteLength" : 84,
            "byteOffset" : 15548
        },
        {
            "buffer" : 0,
            "byteLength" : 56,
            "byteOffset" : 15632
        },
        {
            "buffer" : 0,
            "byteLength" : 18,
            "byteOffset" : 15688
        },
        {
            "buffer" : 0,
            "byteLength" : 48,
            "byteOffset" : 15708
        },
        {
            "buffer" : 0,
            "byteLength" : 48,
            "byteOffset" : 15756
        },
        {
            "buffer" : 0,
            "byteLength" : 32,
            "byteOffset" : 15804
        },
        {
            "buffer" : 0,
            "byteLength" : 12,
            "byteOffset" : 15836
        },
        {
            "buffer" : 0,
            "byteLength" : 49407,
            "byteOffset" : 15848
        },
        {
            "buffer" : 0,
            "byteLength" : 48,
            "byteOffset" : 65256
        },
        {
            "buffer" : 0,
            "byteLength" : 48,
            "byteOffset" : 65304
        },
        {
            "buffer" : 0,
            "byteLength" : 32,
            "byteOffset" : 65352
        },
        {
            "buffer" : 0,
            "byteLength" : 3292,
            "byteOffset" : 65384
        }
    ],
    "samplers" : [
        {
            "magFilter" : 9729,
            "minFilter" : 9987,
            "wrapS" : 33071,
            "wrapT" : 33071
        }
    ],
    "buffers" : [
        {
            "byteLength" : 68676,
            "uri" : "data:application/octet-stream;base64,"
        }
    ]
}
