{
    "asset" : {
        "generator" : "Khronos glTF Blender I/O v1.7.33",
        "version" : "2.0"
    },
    "scene" : 0,
    "scenes" : [
        {
            "name" : "Scene",
            "nodes" : [
                0
            ]
        }
    ],
    "nodes" : [
        {
            "mesh" : 0,
            "name" : "Torus"
        }
    ],
    "materials" : [
        {
            "doubleSided" : true,
            "name" : "Material.001",
            "pbrMetallicRoughness" : {
                "baseColorFactor" : [
                    0.008967241272330284,
                    0.003243200248107314,
                    0.004288441501557827,
                    1
                ],
                "metallicFactor" : 0,
                "roughnessFactor" : 0.5
            }
        }
    ],
    "meshes" : [
        {
            "name" : "Torus",
            "primitives" : [
                {
                    "attributes" : {
                        "POSITION" : 0,
                        "NORMAL" : 1,
                        "TEXCOORD_0" : 2
                    },
                    "indices" : 3,
                    "material" : 0
                }
            ]
        }
    ],
    "accessors" : [
        {
            "bufferView" : 0,
            "componentType" : 5126,
            "count" : 4608,
            "max" : [
                0.8975560665130615,
                0.23690685629844666,
                0.8975560665130615
            ],
            "min" : [
                -0.8975561261177063,
                -0.2508387565612793,
                -0.8975560665130615
            ],
            "type" : "VEC3"
        },
        {
            "bufferView" : 1,
            "componentType" : 5126,
            "count" : 4608,
            "type" : "VEC3"
        },
        {
            "bufferView" : 2,
            "componentType" : 5126,
            "count" : 4608,
            "type" : "VEC2"
        },
        {
            "bufferView" : 3,
            "componentType" : 5123,
            "count" : 6912,
            "type" : "SCALAR"
        }
    ],
    "bufferViews" : [
        {
            "buffer" : 0,
            "byteLength" : 55296,
            "byteOffset" : 0
        },
        {
            "buffer" : 0,
            "byteLength" : 55296,
            "byteOffset" : 55296
        },
        {
            "buffer" : 0,
            "byteLength" : 36864,
            "byteOffset" : 110592
        },
        {
            "buffer" : 0,
            "byteLength" : 13824,
            "byteOffset" : 147456
        }
    ],
    "buffers" : [
        {
            "byteLength" : 161280,
            "uri" : "data:application/octet-stream;base64,"
        }
    ]
}
